<?xml version="1.0" encoding="utf-8"?>
<!-- Generator: Adobe Illustrator 23.0.3, SVG Export Plug-In . SVG Version: 6.00 Build 0)  -->
<svg version="1.1" id="Capa_1" xmlns="http://www.w3.org/2000/svg" xmlns:xlink="http://www.w3.org/1999/xlink" x="0px" y="0px"
	 viewBox="0 0 762 317" style="enable-background:new 0 0 762 317;" xml:space="preserve">
<style type="text/css">
	.st0{fill-rule:evenodd;clip-rule:evenodd;fill:#FFFFFF;}
</style>
<polygon class="st0" points="210.34,141.1 210.34,90.37 91.96,90.37 91.96,141.1 125.78,141.1 125.78,225.65 176.51,225.65 
	176.51,141.1 210.34,141.1 "/>
<path class="st0" d="M599.27,90.37v43.97c0,5.92-2.54,10.99-5.92,15.22L573.9,169c-4.23,4.23-9.3,5.92-15.22,5.92h-21.14
	c6.76-7.61,10.99-17.76,10.99-27.9V90.37h-50.73v43.97c0,5.92-2.54,10.99-5.92,15.22L472.44,169c-4.23,4.23-9.3,5.92-15.22,5.92
	h-10.15V90.37h-50.73v135.28h73.56c10.99,0,21.98-4.23,29.59-12.68l23.67-23.67v36.36h48.19c10.99,0,21.98-4.23,29.59-12.68
	l36.36-36.36c8.45-7.61,12.68-18.6,12.68-29.59l0-56.65H599.27L599.27,90.37z"/>
<path class="st0" d="M379.44,225.65h-50.73v-43.97c0-5.92-2.54-10.99-5.92-15.22l-19.45-19.45c-4.23-3.38-9.3-5.92-15.22-5.92
	h-10.15v84.55h-50.73V90.37h73.56c10.99,0,21.98,4.23,29.59,12.68l36.36,36.36c8.45,7.61,12.68,18.6,12.68,29.59V225.65
	L379.44,225.65z"/>
</svg>
